<?xml version="1.0" standalone="no"?><!DOCTYPE svg PUBLIC "-//W3C//DTD SVG 1.1//EN" "http://www.w3.org/Graphics/SVG/1.1/DTD/svg11.dtd"><svg t="1576839036976" class="icon" viewBox="0 0 1024 1024" version="1.1" xmlns="http://www.w3.org/2000/svg" p-id="9555" xmlns:xlink="http://www.w3.org/1999/xlink" width="64" height="64"><defs><style type="text/css"></style></defs><path d="M11.264 11.264h1001.472v1001.48H11.264z" fill="#F0DB4F" p-id="9556"></path><path d="M930.776 773.888c-7.336-45.688-37.128-84.064-125.376-119.848-30.656-14.088-64.832-24.176-75.016-47.408-3.616-13.52-4.096-21.136-1.808-29.32 6.568-26.56 38.272-34.84 63.4-27.224 16.184 5.424 31.504 17.896 40.744 37.792 43.216-27.984 43.128-27.8 73.304-47.032-11.048-17.128-16.944-25.032-24.176-32.36-25.992-29.032-61.408-43.984-118.048-42.84l-29.504 3.816c-28.272 7.144-55.216 21.984-71.016 41.88-47.408 53.792-33.888 147.936 23.8 186.68 56.832 42.656 140.32 52.36 150.984 92.248 10.376 48.832-35.888 64.64-81.872 59.024-33.888-7.048-52.736-24.272-73.112-55.592-37.504 21.704-37.504 21.704-76.064 43.88 9.144 19.992 18.752 29.04 34.08 46.36 72.544 73.584 254.08 69.968 286.64-41.408 1.32-3.824 10.088-29.328 3.04-68.648zM555.696 471.544H462.024l-0.384 242.176c0 51.504 2.664 98.72-5.712 113.192-13.704 28.464-49.216 24.936-65.4 19.416-16.472-8.096-24.848-19.608-34.552-35.88-2.664-4.672-4.664-8.288-5.336-8.568l-76.16 46.64c12.664 25.992 31.32 48.552 55.216 63.208 35.696 21.424 83.672 27.992 133.848 16.472 32.656-9.512 60.832-29.216 75.584-59.208 21.328-39.32 16.752-86.912 16.56-139.552 0.48-85.88 0.008-171.744 0.008-257.896z" fill="#323330" p-id="9557"></path></svg>