<?xml version="1.0" standalone="no"?><!DOCTYPE svg PUBLIC "-//W3C//DTD SVG 1.1//EN" "http://www.w3.org/Graphics/SVG/1.1/DTD/svg11.dtd"><svg t="1576913973551" class="icon" viewBox="0 0 1024 1024" version="1.1" xmlns="http://www.w3.org/2000/svg" p-id="2905" id="mx_n_1576913973552" xmlns:xlink="http://www.w3.org/1999/xlink" width="64" height="64"><defs><style type="text/css"></style></defs><path d="M0 512C0 229.6 229.6 0 512 0s512 229.6 512 512-229.6 512-512 512S0 794.4 0 512z" fill="#4F87FB" p-id="2906"></path><path d="M704.8 319.2c10.4 11.2 10.4 28 0 38.4L358.4 704.8c-11.2 10.4-28 10.4-38.4 0-10.4-11.2-10.4-28 0-38.4L666.4 320c10.4-11.2 27.2-11.2 38.4-0.8z" fill="#FFFFFF" p-id="2907"></path><path d="M319.2 319.2c11.2-10.4 28-10.4 38.4 0L704 665.6c10.4 11.2 10.4 28 0 38.4-11.2 10.4-28 10.4-38.4 0L319.2 358.4c-10.4-11.2-10.4-28 0-39.2z" fill="#FFFFFF" p-id="2908"></path></svg>