<?xml version="1.0" standalone="no"?><!DOCTYPE svg PUBLIC "-//W3C//DTD SVG 1.1//EN" "http://www.w3.org/Graphics/SVG/1.1/DTD/svg11.dtd"><svg t="1576915811310" class="icon" viewBox="0 0 1024 1024" version="1.1" xmlns="http://www.w3.org/2000/svg" p-id="3671" xmlns:xlink="http://www.w3.org/1999/xlink" width="64" height="64"><defs><style type="text/css"></style></defs><path d="M4.544 394.133333c-0.448 76.202667 234.453333 256.213333 234.453333 256.213334S156.992 952.341333 198.378667 995.712c42.624 40.96 314.282667-144.042667 314.282666-144.042667s268.010667 189.994667 312.96 144.042667c45.034667-49.365333-39.296-345.365333-39.296-345.365333s233.344-192.341333 233.130667-256.213334c-0.213333-60.8-337.792-68.117333-337.792-68.117333S596.010667 22.314667 512.021333 22.314667c-83.690667 0-171.050667 305.770667-171.050666 305.770666S4.992 316.992 4.544 394.133333z" fill="#dbdbdb" p-id="3672"></path><path d="M363.882667 350.890667s-315.264-7.872-315.264 53.482666c0 61.333333 223.893333 232.597333 223.893333 232.597334s-78.656 284.608-46.890667 316.8c31.701333 32.106667 287.637333-138.730667 287.637334-138.730667s247.616 176.64 285.12 138.730667c37.568-37.973333-44.693333-316.970667-44.693334-316.970667s221.717333-179.861333 221.717334-232.405333-313.237333-54.122667-313.237334-54.122667S575.445333 64.853333 512.021333 64.853333s-148.138667 286.037333-148.138666 286.037334z" fill="#dbdbdb" p-id="3673"></path><path d="M496.682667 159.616s-19.605333 213.717333-131.136 228.970667c-111.594667 15.317333-109.632 18.154667-109.632 18.154666s-169.6-24.469333-103.893334 39.701334c0 0 155.2 75.2 314.176 0.384 139.114667-75.306667 70.208-320.832 70.208-320.832s-30.570667-18.346667-39.722666 33.621333" fill="#dbdbdb" p-id="3674"></path><path d="M503.061333 191.104s-2.005333 157.056-86.4 202.218667c-84.437333 45.162667 43.733333 56.042667 86.4-13.717334 42.688-69.76 26.090667-253.269333 0-188.501333" fill="#dbdbdb" p-id="3675"></path></svg>