<?xml version="1.0" standalone="no"?><!DOCTYPE svg PUBLIC "-//W3C//DTD SVG 1.1//EN" "http://www.w3.org/Graphics/SVG/1.1/DTD/svg11.dtd"><svg t="1576838102231" class="icon" viewBox="0 0 1024 1024" version="1.1" xmlns="http://www.w3.org/2000/svg" p-id="994" xmlns:xlink="http://www.w3.org/1999/xlink" width="64" height="64"><defs><style type="text/css"></style></defs><path d="M688.810667 846.506667c-6.826667 0-13.653333-0.682667-20.48-2.730667l-146.773334-40.96c-6.144-2.048-12.970667-2.048-19.114666 0l-146.773334 40.96c-22.528 6.144-46.421333 2.048-64.853333-11.605333-19.114667-13.653333-30.037333-34.816-31.402667-58.026667L253.269333 621.226667c0-6.144-2.048-12.288-6.144-17.749334L163.157333 476.501333c-12.970667-19.114667-16.384-43.008-8.874666-65.536 7.509333-22.528 23.893333-39.594667 45.738666-47.786666l142.677334-53.248c6.144-2.048 10.922667-6.144 15.018666-10.922667l94.890667-119.466667c14.336-18.432 36.181333-28.672 59.392-28.672 23.210667 0 45.056 10.24 59.392 28.672l94.890667 119.466667c4.096 4.778667 9.557333 8.874667 15.018666 10.922667l142.677334 53.248c21.845333 8.192 38.229333 25.258667 45.738666 47.786666 7.509333 22.528 4.096 46.421333-8.874666 65.536l-83.968 126.976c-3.413333 5.461333-5.461333 11.605333-6.144 17.749334l-6.144 152.234666c-0.682667 23.210667-12.288 44.373333-31.402667 58.026667-12.970667 9.557333-28.672 15.018667-44.373333 15.018667zM512 760.490667c6.826667 0 13.653333 0.682667 20.48 2.730666l146.773333 40.96c10.24 2.730667 21.162667 0.682667 30.037334-5.461333 8.874667-6.144 13.653333-16.384 14.336-26.624l6.144-152.234667c0.682667-13.653333 4.778667-27.306667 12.288-38.912L826.026667 453.973333c6.144-8.874667 7.509333-19.797333 4.096-30.037333-3.413333-10.24-10.922667-18.432-21.162667-21.845333L666.965333 348.16c-12.970667-4.778667-24.576-12.970667-32.768-23.893333L539.306667 204.8c-6.826667-8.192-16.384-12.970667-27.306667-12.970667s-20.48 4.778667-27.306667 12.970667L389.802667 324.266667c-8.874667 10.922667-19.797333 19.114667-32.768 23.893333l-142.677334 53.248c-10.24 4.096-17.749333 11.605333-21.162666 21.845333-3.413333 10.24-2.048 21.162667 4.096 30.037334L281.258667 580.266667c7.509333 11.605333 12.288 25.258667 12.288 38.912l6.826666 152.234666c0.682667 10.922667 5.461333 20.48 14.336 26.624s19.797333 8.192 30.037334 5.461334l146.773333-40.96c6.826667-1.365333 13.653333-2.048 20.48-2.048z" fill="#ffffff" p-id="995" data-spm-anchor-id="a313x.7781069.0.i1" class=""></path><path d="M550.229333 326.997333l46.421334 58.709334c5.461333 6.826667 12.970667 12.288 21.162666 15.018666l69.632 25.941334c29.354667 10.922667 40.96 46.421333 23.210667 72.362666l-40.96 62.122667c-4.778667 7.509333-7.509333 15.701333-8.192 24.576l-3.413333 74.410667c-1.365333 31.402667-31.402667 53.248-61.44 45.056l-71.68-19.797334c-8.874667-2.048-17.749333-2.048-25.941334 0l-71.68 19.797334c-30.037333 8.192-60.074667-13.653333-61.44-45.056l-3.413333-74.410667c-0.682667-8.874667-3.413333-17.749333-8.192-24.576l-40.96-62.122667c-17.066667-25.941333-6.144-61.44 23.210667-72.362666l69.632-25.941334c8.192-3.413333 15.701333-8.192 21.162666-15.018666l46.421334-58.709334c19.797333-24.576 56.661333-24.576 76.458666 0z" fill="#ffffff" p-id="996" data-spm-anchor-id="a313x.7781069.0.i2" class="selected"></path></svg>